<?xml version="1.0" standalone="no"?>
<!DOCTYPE svg PUBLIC "-//W3C//DTD SVG 20010904//EN"
 "http://www.w3.org/TR/2001/REC-SVG-20010904/DTD/svg10.dtd">
<svg version="1.0" xmlns="http://www.w3.org/2000/svg"
 width="260.000000pt" height="260.000000pt" viewBox="0 0 260.000000 260.000000"
 preserveAspectRatio="xMidYMid meet">
<metadata>
Created by potrace 1.14, written by Peter Selinger 2001-2017
</metadata>
<g transform="translate(0.000000,260.000000) scale(0.100000,-0.100000)"
fill="#000000" stroke="none">
<path d="M995 2583 c6 -42 -9 -49 -99 -48 -47 1 -87 -2 -87 -7 -1 -4 -2 -18
-3 -30 -1 -21 -6 -23 -61 -23 -59 0 -60 0 -60 -29 -1 -24 -5 -29 -28 -32 -25
-2 -40 8 -43 31 0 6 -2 15 -2 20 -1 7 -46 10 -119 10 -111 0 -118 -2 -118 -20
0 -33 -15 -47 -41 -41 -25 7 -26 6 -26 -54 -1 -70 0 -71 31 -65 32 6 38 -3 35
-52 -1 -18 -2 -44 -3 -56 -1 -22 -5 -24 -56 -22 -64 1 -71 -2 -70 -35 0 -24
-3 -25 -60 -25 -55 0 -60 -2 -61 -22 -1 -13 -2 -28 -3 -33 0 -6 -13 -9 -28 -8
-27 3 -27 2 -28 -52 -1 -30 0 -60 2 -65 2 -6 50 -10 122 -10 l118 1 0 -61 0
-60 -121 0 -121 0 0 -92 c0 -98 -1 -100 -52 -94 -9 1 -13 -17 -13 -61 l0 -63
90 0 c53 1 91 -3 93 -10 2 -5 3 -32 3 -60 -1 -42 -4 -50 -21 -51 -11 -1 -25
-2 -31 -3 -7 -1 -10 -14 -9 -31 l3 -30 -64 0 -64 0 0 -154 c0 -139 2 -153 18
-153 48 0 47 2 47 -96 l0 -93 29 0 c24 1 29 -3 32 -27 1 -15 -2 -28 -9 -29 -7
0 -16 -2 -22 -3 -5 -2 -15 -3 -21 -4 -6 -1 -10 -25 -10 -61 0 -62 -1 -61 46
-64 11 -1 15 -15 16 -54 1 -28 2 -56 3 -60 0 -5 22 -8 49 -7 62 2 67 0 68 -34
1 -25 -1 -28 -27 -26 -16 1 -29 0 -30 -4 -5 -35 -5 -102 1 -111 6 -10 24 -16
53 -19 4 -1 7 -7 6 -13 -5 -40 0 -44 60 -42 62 2 72 -5 62 -41 -6 -19 -14 -21
-126 -20 l-120 0 0 -60 0 -60 430 -1 c237 -1 433 -2 436 -3 3 0 4 -14 3 -31
l-2 -30 188 0 188 0 -3 30 c-1 16 0 31 4 31 3 1 31 2 61 3 49 1 55 4 56 24 1
12 2 26 3 30 0 5 25 8 54 6 69 -3 68 -2 66 -16 -6 -45 -17 -43 309 -43 l307 0
0 88 c1 52 -3 88 -10 89 -11 2 -56 5 -92 7 -18 1 -22 6 -19 24 3 12 5 26 5 30
1 5 4 6 9 4 4 -3 17 -1 30 4 17 6 21 14 18 33 -3 19 1 25 19 28 28 6 47 -4 45
-23 -6 -43 14 -50 115 -40 6 1 10 15 10 33 l0 32 60 0 60 1 0 58 c1 32 -4 58
-10 58 -5 1 -32 2 -60 3 -48 1 -50 2 -50 31 0 24 5 30 23 31 12 1 26 2 30 3 4
0 8 13 8 29 -1 26 0 27 59 27 l60 1 1 144 c0 80 -2 150 -4 156 -2 7 -23 11
-52 10 -27 -2 -53 0 -58 3 -11 8 -10 114 2 123 5 3 18 5 28 3 18 -4 21 0 21
30 0 31 -4 34 -30 32 -26 -2 -27 -1 -28 56 -1 31 1 58 4 58 3 1 42 3 86 4 44
2 83 3 88 4 4 1 7 84 7 186 l0 185 -29 -4 c-35 -4 -37 2 -36 107 0 46 -3 78
-10 78 -5 1 -18 2 -27 2 -18 0 -20 4 -20 32 0 30 3 34 27 29 14 -2 26 -1 26 3
1 5 2 34 4 66 1 49 -1 57 -17 58 -10 1 -24 2 -30 3 -7 0 -13 11 -13 23 0 30
-11 38 -58 39 -60 2 -67 3 -66 12 1 4 1 17 0 30 -1 17 -5 22 -18 18 -22 -7
-45 7 -43 25 5 33 0 39 -29 34 -23 -4 -30 -1 -34 16 -11 41 -1 46 94 45 55 -1
89 2 90 9 10 99 4 127 -27 119 -14 -4 -25 -2 -25 5 -1 6 -3 16 -4 21 -1 6 -3
16 -4 23 -1 10 -49 12 -216 12 -142 -1 -216 3 -218 9 -2 6 -3 32 -2 59 2 28
-2 48 -9 49 -6 0 -15 2 -21 3 -5 2 -15 3 -21 4 -5 0 -10 13 -10 29 1 26 -1 27
-60 30 l-62 3 3 -30 c1 -16 -3 -31 -9 -34 -9 -3 -97 -2 -117 2 -4 1 -5 15 -3
31 l4 30 -309 0 c-289 0 -309 -1 -306 -17z"/>
</g>
</svg>
